<!--?xml version="1.0" standalone="no"?-->
              <svg id="sw-js-blob-svg" viewBox="0 0 100 100" xmlns="http://www.w3.org/2000/svg" version="1.1">
                    <defs> 
                        <linearGradient id="sw-gradient" x1="0" x2="1" y1="1" y2="0">
                            <stop id="stop1" stop-color="rgba(144, 137, 252, 1)" offset="0%"></stop>
                            <stop id="stop2" stop-color="rgba(144, 137, 252, 1)" offset="100%"></stop>
                        </linearGradient>
                    </defs>
                <path fill="rgba(144, 137, 252, 1)" d="M11.9,-18.2C16.4,-15.5,21.9,-14,26.3,-10.3C30.6,-6.6,33.8,-0.6,35,6.5C36.3,13.6,35.6,21.9,31.6,28.3C27.6,34.8,20.2,39.3,13.5,37.2C6.8,35.1,0.8,26.4,-6.7,23.8C-14.2,21.1,-23.2,24.5,-30.2,22.7C-37.3,20.9,-42.4,13.8,-43.3,6.4C-44.1,-1.1,-40.7,-9.1,-35.7,-14.8C-30.7,-20.5,-24.1,-23.9,-17.9,-25.8C-11.7,-27.7,-5.9,-28,-1.1,-26.3C3.6,-24.6,7.3,-20.8,11.9,-18.2Z" width="100%" height="100%" transform="translate(50 50)" stroke-width="0" style="transition: all 0.3s ease 0s;" stroke="url(#sw-gradient)"></path>
              </svg>