<!--?xml version="1.0" standalone="no"?-->
              <svg id="sw-js-blob-svg" viewBox="0 0 100 100" xmlns="http://www.w3.org/2000/svg" version="1.1">
                    <defs> 
                        <linearGradient id="sw-gradient" x1="0" x2="1" y1="1" y2="0">
                            <stop id="stop1" stop-color="rgba(255, 128, 181, 1)" offset="0%"></stop>
                            <stop id="stop2" stop-color="rgba(138.452, 131.001, 253.417, 1)" offset="100%"></stop>
                        </linearGradient>
                    </defs>
                <path fill="url(#sw-gradient)" d="M23.1,-35.5C29.4,-31.9,33.7,-24.6,34.6,-17.4C35.5,-10.1,33,-2.9,32.5,5.1C31.9,13,33.4,21.6,30.3,27.6C27.2,33.6,19.5,37,11.9,38.3C4.2,39.6,-3.5,38.7,-10.3,36.3C-17.2,33.8,-23.3,29.6,-29.1,24.4C-34.8,19.1,-40.3,12.9,-41.7,5.8C-43.1,-1.3,-40.4,-9.3,-35.7,-14.9C-30.9,-20.5,-24.2,-23.8,-17.9,-27.5C-11.6,-31.2,-5.8,-35.2,1.3,-37.2C8.4,-39.2,16.8,-39.2,23.1,-35.5Z" width="100%" height="100%" transform="translate(50 50)" stroke-width="0" style="transition: all 0.3s ease 0s;" stroke="url(#sw-gradient)"></path>
              </svg>