<!--?xml version="1.0" standalone="no"?-->
              <svg id="sw-js-blob-svg" viewBox="0 0 100 100" xmlns="http://www.w3.org/2000/svg" version="1.1">
                    <defs> 
                        <linearGradient id="sw-gradient" x1="0" x2="1" y1="1" y2="0">
                            <stop id="stop1" stop-color="rgba(255, 128, 181, 1)" offset="0%"></stop>
                            <stop id="stop2" stop-color="rgba(255, 255, 255, 1)" offset="100%"></stop>
                        </linearGradient>
                    </defs>
                <path fill="rgba(255, 128, 181, 1)" d="M26.7,-35.9C33.8,-31.6,38.3,-22.7,40.5,-13.7C42.8,-4.6,42.8,4.6,39.8,12.6C36.7,20.6,30.7,27.3,23.6,32.6C16.5,37.8,8.2,41.7,-0.6,42.4C-9.3,43.2,-18.7,40.9,-25.5,35.5C-32.3,30.1,-36.6,21.7,-39.2,12.9C-41.9,4.1,-43,-5.1,-40.3,-12.9C-37.5,-20.7,-30.9,-27,-23.5,-31.3C-16.2,-35.5,-8.1,-37.5,0.9,-38.7C9.8,-39.9,19.6,-40.1,26.7,-35.9Z" width="100%" height="100%" transform="translate(50 50)" stroke-width="0" style="transition: all 0.3s ease 0s;" stroke="url(#sw-gradient)"></path>
              </svg>